<?xml version="1.0" encoding="UTF-8" standalone="no"?>
<svg
   xmlns:dc="http://purl.org/dc/elements/1.1/"
   xmlns:cc="http://creativecommons.org/ns#"
   xmlns:rdf="http://www.w3.org/1999/02/22-rdf-syntax-ns#"
   xmlns:svg="http://www.w3.org/2000/svg"
   xmlns="http://www.w3.org/2000/svg"
   xmlns:sodipodi="http://sodipodi.sourceforge.net/DTD/sodipodi-0.dtd"
   xmlns:inkscape="http://www.inkscape.org/namespaces/inkscape"
   viewBox="0 0 30 30"
   width="30px"
   height="30px"
   version="1.1"
   id="svg5"
   sodipodi:docname="me.svg"
   inkscape:version="0.92.5 (2060ec1f9f, 2020-04-08)">
  <metadata
     id="metadata11">
    <rdf:RDF>
      <cc:Work
         rdf:about="">
        <dc:format>image/svg+xml</dc:format>
        <dc:type
           rdf:resource="http://purl.org/dc/dcmitype/StillImage" />
      </cc:Work>
    </rdf:RDF>
  </metadata>
  <defs
     id="defs9" />
  <sodipodi:namedview
     pagecolor="#ffffff"
     bordercolor="#666666"
     borderopacity="1"
     objecttolerance="10"
     gridtolerance="10"
     guidetolerance="10"
     inkscape:pageopacity="0"
     inkscape:pageshadow="2"
     inkscape:window-width="1848"
     inkscape:window-height="1016"
     id="namedview7"
     showgrid="false"
     inkscape:zoom="7.8666667"
     inkscape:cx="15"
     inkscape:cy="15"
     inkscape:window-x="72"
     inkscape:window-y="27"
     inkscape:window-maximized="1"
     inkscape:current-layer="svg5" />
  <path
     inkscape:connector-curvature="0"
     style="fill:#ffcc4d;stroke-width:0.73516947"
     d="m 28.296611,15.063559 c 0,7.308321 -5.924731,13.233052 -13.233052,13.233052 -7.3083197,0 -13.2330507,-5.924731 -13.2330507,-13.233052 0,-7.3083196 5.924731,-13.2330506 13.2330507,-13.2330506 7.308321,0 13.233052,5.924731 13.233052,13.2330506"
     id="path886" />
  <path
     inkscape:connector-curvature="0"
     style="clip-rule:evenodd;fill:#292f33;fill-rule:evenodd;stroke-width:0.73516947"
     d="m 2.7421183,9.930606 c 0.176441,0.175705 1.057174,0.703557 1.23288,1.231408 0.17644,0.527117 0.529321,3.517052 1.586495,4.39705 1.090257,0.905729 5.2027947,0.569021 5.9901617,0.176441 1.762202,-0.878528 1.978342,-3.331054 2.290053,-4.573491 0.175705,-0.703556 1.232879,-0.703556 1.232879,-0.703556 0,0 1.057174,0 1.233615,0.702822 0.311711,1.243171 0.529322,3.695697 2.290053,4.573489 0.788101,0.393316 4.900639,0.730759 5.992367,-0.174969 1.055703,-0.879998 1.407849,-3.869933 1.58429,-4.397786 0.17497,-0.527116 1.057174,-1.054967 1.232879,-1.2306729 0.177175,-0.1757055 0.177175,-0.8792627 0,-1.0557034 -0.352147,-0.351411 -4.50953,-0.6645932 -8.985977,-0.1757054 -0.893231,0.097777 -1.232879,0.3514109 -3.347962,0.3514109 -2.113613,0 -2.45473,-0.2543686 -3.347227,-0.3514109 -4.4735067,-0.489623 -8.6316247,-0.1764408 -8.9845067,0.1749702 -0.175705,0.1757056 -0.175705,0.8799979 0,1.0557035 z"
     id="path888" />
  <path
     inkscape:connector-curvature="0"
     style="fill:#664500;stroke-width:0.73516947"
     d="m 21.926367,19.201829 c -0.13086,-0.118362 -0.326415,-0.125715 -0.466832,-0.02132 -0.02867,0.02132 -2.883335,2.131992 -6.395976,2.131992 -3.503817,0 -6.3680377,-2.110671 -6.3959737,-2.131992 -0.140417,-0.104393 -0.335973,-0.09557 -0.466833,0.02132 -0.130125,0.117627 -0.159532,0.311711 -0.0691,0.461686 0.09484,0.158062 2.3650407,3.854494 6.9319127,3.854494 4.566874,0 6.837812,-3.696432 6.931914,-3.854494 0.09043,-0.150709 0.06176,-0.344059 -0.0691,-0.461686 z"
     id="path890" />
</svg>
